# xmcd CD database file
#
# Track frame offsets:
#	150
#	19032
#	32608
#	42711
#	54951
#	65645
#	78582
#	91341
#	106663
#	130029
#	147720
#	171105
#	185246
#	194231
#	204073
#	212867
#	229830
#	240815
#	249383
#	264053
#	270038
#	281595
#	299071
#	311874
#
# Disc length: 4348 seconds
#
# Revision: 0
# Processed by: cddbd v1.5.1PL2 Copyright (c) Steve Scherf et al.
# Submitted via: Feurio! 1.68 - http://www.feurio.com
#
DISCID=6010fa18
DTITLE=David Allen Coe - Why Me
DYEAR=1900
DGENRE=
TTITLE0=The Dope Smokin Song
TTITLE1=Panheads Forever
TTITLE2=David Allan Coe - Don't Bite the Dick Who Fuck's You, Honey
TTITLE3=Pick' Em  Lick' Em
TTITLE4=Crazy Racist Bullshit Song
TTITLE5=Jack Daniels, Jack Daniels, Jack Daniels Please
TTITLE6=Little Suzie Shallow Throat
TTITLE7=Pussy Whiped Again
TTITLE8=Coffee
TTITLE9=Dancin Bear
TTITLE10=You Never Even Called Me By My
TTITLE11=David Allan Coe - The Ride
TTITLE12=David Allan Coe - Three Biggest Lies
TTITLE13=Finger Fuckin Sally
TTITLE14=Rodeo Song
TTITLE15=Masterbation Blues
TTITLE16=Cowboys and Niggers
TTITLE17=Fuzzy Was An Outlaw
TTITLE18=Cum Stains On The Pillow
TTITLE19=Hot Wet Tight Pussy
TTITLE20=Fuck Anita Bryant
TTITLE21=David Allan Coe - Whips and Things
TTITLE22=Darlin I'm  So Horny
TTITLE23=Why Me
EXTD=
EXTT0=
EXTT1=
EXTT2=
EXTT3=
EXTT4=
EXTT5=
EXTT6=
EXTT7=
EXTT8=
EXTT9=
EXTT10=
EXTT11=
EXTT12=
EXTT13=
EXTT14=
EXTT15=
EXTT16=
EXTT17=
EXTT18=
EXTT19=
EXTT20=
EXTT21=
EXTT22=
EXTT23=
PLAYORDER=
